<?xml version="1.0" encoding="UTF-8" standalone="no"?>
<!DOCTYPE svg PUBLIC "-//W3C//DTD SVG 1.1//EN" "http://www.w3.org/Graphics/SVG/1.1/DTD/svg11.dtd">
<!-- Generated by graphviz version 2.40.1 (20161225.0304)
 -->
<!-- Title: G Pages: 1 -->
<svg width="1201pt" height="2772pt" viewBox="0.00 0.00 1201.00 2771.99" xmlns="http://www.w3.org/2000/svg" xmlns:xlink="http://www.w3.org/1999/xlink">
<g id="graph0" class="graph" transform="scale(1 1) rotate(0) translate(4 2767.9877)">
<title>G</title>
<polygon fill="#ffffff" stroke="transparent" points="-4,4 -4,-2767.9877 1196.9966,-2767.9877 1196.9966,4 -4,4"/>
<g id="clust1" class="cluster">
<title>cluster_1</title>
<polygon fill="none" stroke="#000000" points="8,-8 8,-2755.9877 1182,-2755.9877 1182,-8 8,-8"/>
</g>
<!-- v2 -->
<g id="node1" class="node">
<title>v2</title>
<text text-anchor="middle" x="1046" y="-2725.7877" font-family="Times,serif" font-size="14.00" fill="#000000"> </text>
</g>
<!-- v3 -->
<g id="node2" class="node">
<title>v3</title>
<polygon fill="none" stroke="#000000" points="901,-2747.9877 847,-2747.9877 847,-2711.9877 901,-2711.9877 901,-2747.9877"/>
<text text-anchor="middle" x="874" y="-2725.7877" font-family="Times,serif" font-size="14.00" fill="#000000">arg0</text>
</g>
<!-- v4 -->
<g id="node3" class="node">
<title>v4</title>
<ellipse fill="none" stroke="#000000" cx="874" cy="-2607.5721" rx="109.2227" ry="29.3315"/>
<text text-anchor="middle" x="874" y="-2611.7721" font-family="Times,serif" font-size="14.00" fill="#000000">%0 = hal.tensor.import</text>
<text text-anchor="middle" x="874" y="-2594.9721" font-family="Times,serif" font-size="14.00" fill="#000000">tensor&lt;1x128x768xf32&gt;</text>
</g>
<!-- v3&#45;&gt;v4 -->
<g id="edge1" class="edge">
<title>v3-&gt;v4</title>
<path fill="none" stroke="#000000" d="M874,-2711.9249C874,-2695.0069 874,-2669.1415 874,-2647.3952"/>
<polygon fill="#000000" stroke="#000000" points="877.5001,-2647.1079 874,-2637.1079 870.5001,-2647.108 877.5001,-2647.1079"/>
</g>
<!-- v5 -->
<g id="node4" class="node">
<title>v5</title>
<polygon fill="none" stroke="#000000" points="576.4322,-2487.4565 15.5678,-2487.4565 15.5678,-2328.0563 576.4322,-2328.0563 576.4322,-2487.4565"/>
<text text-anchor="middle" x="296" y="-2470.7564" font-family="Times,serif" font-size="14.00" fill="#000000">%1 = flow.dispatch[]</text>
<text text-anchor="middle" x="296" y="-2453.9564" font-family="Times,serif" font-size="14.00" fill="#000000">@forward_dispatch_0::@forward_dispatch_0_batch_matmul_1x128x768x768_f32(%0, %cst_0)</text>
<text text-anchor="start" x="23.784" y="-2437.1564" font-family="Times,serif" font-size="14.00" fill="#000000">%0 = flow.dispatch.tensor.load %arg0 -&gt; tensor&lt;1x128x768xf32&gt;</text>
<text text-anchor="start" x="23.784" y="-2420.3564" font-family="Times,serif" font-size="14.00" fill="#000000">%1 = flow.dispatch.tensor.load %arg1 -&gt; tensor&lt;1x768x768xf32&gt;</text>
<text text-anchor="start" x="23.784" y="-2403.5564" font-family="Times,serif" font-size="14.00" fill="#000000">%2 = tensor.empty() : tensor&lt;1x128x768xf32&gt;</text>
<text text-anchor="start" x="23.784" y="-2386.7564" font-family="Times,serif" font-size="14.00" fill="#000000">%3 = linalg.fill ins(%cst : f32) outs(%2 : tensor&lt;1x128x768xf32&gt;) -&gt; tensor&lt;1x128x768xf32&gt;</text>
<text text-anchor="start" x="23.784" y="-2369.9564" font-family="Times,serif" font-size="14.00" fill="#000000">%4 = linalg.batch_matmul[parallel, parallel, parallel, reduction] (%0, %1) -&gt; (%3)</text>
<text text-anchor="start" x="23.784" y="-2353.1564" font-family="Times,serif" font-size="14.00" fill="#000000">flow.dispatch.tensor.store %4, %arg2</text>
<text text-anchor="middle" x="296" y="-2336.3564" font-family="Times,serif" font-size="14.00" fill="#000000">tensor&lt;1x128x768xf32&gt;</text>
</g>
<!-- v4&#45;&gt;v5 -->
<g id="edge2" class="edge">
<title>v4-&gt;v5</title>
<path fill="none" stroke="#000000" d="M806.5648,-2584.2596C739.9243,-2561.2219 634.0028,-2524.6046 535.8681,-2490.6793"/>
<polygon fill="#000000" stroke="#000000" points="536.9918,-2487.3645 526.3971,-2487.4051 534.7047,-2493.9804 536.9918,-2487.3645"/>
<text text-anchor="middle" x="682.5" y="-2528.5564" font-family="Times,serif" font-size="14.00" fill="#000000">0</text>
</g>
<!-- v7 -->
<g id="node6" class="node">
<title>v7</title>
<polygon fill="none" stroke="#000000" points="1154.4322,-2487.4565 593.5678,-2487.4565 593.5678,-2328.0563 1154.4322,-2328.0563 1154.4322,-2487.4565"/>
<text text-anchor="middle" x="874" y="-2470.7564" font-family="Times,serif" font-size="14.00" fill="#000000">%3 = flow.dispatch[]</text>
<text text-anchor="middle" x="874" y="-2453.9564" font-family="Times,serif" font-size="14.00" fill="#000000">@forward_dispatch_0::@forward_dispatch_0_batch_matmul_1x128x768x768_f32(%0, %cst_1)</text>
<text text-anchor="start" x="601.784" y="-2437.1564" font-family="Times,serif" font-size="14.00" fill="#000000">%0 = flow.dispatch.tensor.load %arg0 -&gt; tensor&lt;1x128x768xf32&gt;</text>
<text text-anchor="start" x="601.784" y="-2420.3564" font-family="Times,serif" font-size="14.00" fill="#000000">%1 = flow.dispatch.tensor.load %arg1 -&gt; tensor&lt;1x768x768xf32&gt;</text>
<text text-anchor="start" x="601.784" y="-2403.5564" font-family="Times,serif" font-size="14.00" fill="#000000">%2 = tensor.empty() : tensor&lt;1x128x768xf32&gt;</text>
<text text-anchor="start" x="601.784" y="-2386.7564" font-family="Times,serif" font-size="14.00" fill="#000000">%3 = linalg.fill ins(%cst : f32) outs(%2 : tensor&lt;1x128x768xf32&gt;) -&gt; tensor&lt;1x128x768xf32&gt;</text>
<text text-anchor="start" x="601.784" y="-2369.9564" font-family="Times,serif" font-size="14.00" fill="#000000">%4 = linalg.batch_matmul[parallel, parallel, parallel, reduction] (%0, %1) -&gt; (%3)</text>
<text text-anchor="start" x="601.784" y="-2353.1564" font-family="Times,serif" font-size="14.00" fill="#000000">flow.dispatch.tensor.store %4, %arg2</text>
<text text-anchor="middle" x="874" y="-2336.3564" font-family="Times,serif" font-size="14.00" fill="#000000">tensor&lt;1x128x768xf32&gt;</text>
</g>
<!-- v4&#45;&gt;v7 -->
<g id="edge4" class="edge">
<title>v4-&gt;v7</title>
<path fill="none" stroke="#000000" d="M874,-2578.0886C874,-2556.7246 874,-2526.6191 874,-2497.6484"/>
<polygon fill="#000000" stroke="#000000" points="877.5001,-2497.4645 874,-2487.4646 870.5001,-2497.4646 877.5001,-2497.4645"/>
<text text-anchor="middle" x="877.5" y="-2528.5564" font-family="Times,serif" font-size="14.00" fill="#000000">0</text>
</g>
<!-- v9 -->
<g id="node8" class="node">
<title>v9</title>
<polygon fill="none" stroke="#000000" points="1174.4322,-2310.2565 613.5678,-2310.2565 613.5678,-2150.8563 1174.4322,-2150.8563 1174.4322,-2310.2565"/>
<text text-anchor="middle" x="894" y="-2293.5564" font-family="Times,serif" font-size="14.00" fill="#000000">%5 = flow.dispatch[]</text>
<text text-anchor="middle" x="894" y="-2276.7564" font-family="Times,serif" font-size="14.00" fill="#000000">@forward_dispatch_0::@forward_dispatch_0_batch_matmul_1x128x768x768_f32(%0, %cst_2)</text>
<text text-anchor="start" x="621.784" y="-2259.9564" font-family="Times,serif" font-size="14.00" fill="#000000">%0 = flow.dispatch.tensor.load %arg0 -&gt; tensor&lt;1x128x768xf32&gt;</text>
<text text-anchor="start" x="621.784" y="-2243.1564" font-family="Times,serif" font-size="14.00" fill="#000000">%1 = flow.dispatch.tensor.load %arg1 -&gt; tensor&lt;1x768x768xf32&gt;</text>
<text text-anchor="start" x="621.784" y="-2226.3564" font-family="Times,serif" font-size="14.00" fill="#000000">%2 = tensor.empty() : tensor&lt;1x128x768xf32&gt;</text>
<text text-anchor="start" x="621.784" y="-2209.5564" font-family="Times,serif" font-size="14.00" fill="#000000">%3 = linalg.fill ins(%cst : f32) outs(%2 : tensor&lt;1x128x768xf32&gt;) -&gt; tensor&lt;1x128x768xf32&gt;</text>
<text text-anchor="start" x="621.784" y="-2192.7564" font-family="Times,serif" font-size="14.00" fill="#000000">%4 = linalg.batch_matmul[parallel, parallel, parallel, reduction] (%0, %1) -&gt; (%3)</text>
<text text-anchor="start" x="621.784" y="-2175.9564" font-family="Times,serif" font-size="14.00" fill="#000000">flow.dispatch.tensor.store %4, %arg2</text>
<text text-anchor="middle" x="894" y="-2159.1564" font-family="Times,serif" font-size="14.00" fill="#000000">tensor&lt;1x128x768xf32&gt;</text>
</g>
<!-- v4&#45;&gt;v9 -->
<g id="edge6" class="edge">
<title>v4-&gt;v9</title>
<path fill="none" stroke="#000000" d="M972.5877,-2594.7992C1038.6014,-2580.5571 1120.8562,-2550.5315 1163,-2487.3564 1202.2656,-2428.4959 1203.613,-2386.0954 1163,-2328.1564 1160.1261,-2324.0565 1156.0372,-2319.9972 1150.9424,-2315.9974"/>
<polygon fill="#000000" stroke="#000000" points="1152.9574,-2313.1356 1142.7825,-2310.1822 1148.8948,-2318.8361 1152.9574,-2313.1356"/>
<text text-anchor="middle" x="1132.5" y="-2528.5564" font-family="Times,serif" font-size="14.00" fill="#000000">0</text>
</g>
<!-- v6 -->
<g id="node5" class="node">
<title>v6</title>
<ellipse fill="none" stroke="#000000" cx="312" cy="-2065.5408" rx="112.6038" ry="29.3315"/>
<text text-anchor="middle" x="312" y="-2069.7408" font-family="Times,serif" font-size="14.00" fill="#000000">%2 = flow.tensor.reshape</text>
<text text-anchor="middle" x="312" y="-2052.9408" font-family="Times,serif" font-size="14.00" fill="#000000">tensor&lt;128x12x64xf32&gt;</text>
</g>
<!-- v5&#45;&gt;v6 -->
<g id="edge3" class="edge">
<title>v5-&gt;v6</title>
<path fill="none" stroke="#000000" d="M299.7311,-2327.954C302.9948,-2258.1487 307.599,-2159.6713 310.1378,-2105.3709"/>
<polygon fill="#000000" stroke="#000000" points="313.646,-2105.274 310.617,-2095.1214 306.6537,-2104.947 313.646,-2105.274"/>
</g>
<!-- v12 -->
<g id="node11" class="node">
<title>v12</title>
<polygon fill="none" stroke="#000000" points="562.5304,-1677.6939 69.4696,-1677.6939 69.4696,-1501.6939 562.5304,-1501.6939 562.5304,-1677.6939"/>
<text text-anchor="middle" x="316" y="-1661.0939" font-family="Times,serif" font-size="14.00" fill="#000000">%8 = flow.dispatch[]</text>
<text text-anchor="middle" x="316" y="-1644.2939" font-family="Times,serif" font-size="14.00" fill="#000000">@forward_dispatch_3::@forward_dispatch_3_generic_128x12x64_f32(%2, %cst_4)</text>
<text text-anchor="start" x="77.2349" y="-1627.4939" font-family="Times,serif" font-size="14.00" fill="#000000">%0 = flow.dispatch.tensor.load %arg0 -&gt; tensor&lt;128x12x64xf32&gt;</text>
<text text-anchor="start" x="77.2349" y="-1610.6939" font-family="Times,serif" font-size="14.00" fill="#000000">%1 = flow.dispatch.tensor.load %arg1 -&gt; tensor&lt;12x64xf32&gt;</text>
<text text-anchor="start" x="77.2349" y="-1593.8939" font-family="Times,serif" font-size="14.00" fill="#000000">%2 = tensor.empty() : tensor&lt;12x128x64xf32&gt;</text>
<text text-anchor="start" x="77.2349" y="-1577.0939" font-family="Times,serif" font-size="14.00" fill="#000000">%3 = linalg.generic[parallel, parallel, parallel] (%0, %1) -&gt; (%2)</text>
<text text-anchor="start" x="77.2349" y="-1560.2939" font-family="Times,serif" font-size="14.00" fill="#000000">        %4 = arith.addf %in, %in_0 : f32</text>
<text text-anchor="start" x="77.2349" y="-1543.4939" font-family="Times,serif" font-size="14.00" fill="#000000">        linalg.yield %4 : f32</text>
<text text-anchor="start" x="77.2349" y="-1526.6939" font-family="Times,serif" font-size="14.00" fill="#000000">flow.dispatch.tensor.store %3, %arg2</text>
<text text-anchor="middle" x="316" y="-1509.8939" font-family="Times,serif" font-size="14.00" fill="#000000">tensor&lt;12x128x64xf32&gt;</text>
</g>
<!-- v6&#45;&gt;v12 -->
<g id="edge9" class="edge">
<title>v6-&gt;v12</title>
<path fill="none" stroke="#000000" d="M312.2502,-2035.7744C312.8241,-1967.5065 314.2562,-1797.1451 315.1752,-1687.8162"/>
<polygon fill="#000000" stroke="#000000" points="318.6754,-1687.7895 315.2597,-1677.7604 311.6757,-1687.7306 318.6754,-1687.7895"/>
<text text-anchor="middle" x="316.5" y="-1928.6939" font-family="Times,serif" font-size="14.00" fill="#000000">0</text>
</g>
<!-- v8 -->
<g id="node7" class="node">
<title>v8</title>
<ellipse fill="none" stroke="#000000" cx="579" cy="-2065.5408" rx="112.6038" ry="29.3315"/>
<text text-anchor="middle" x="579" y="-2069.7408" font-family="Times,serif" font-size="14.00" fill="#000000">%4 = flow.tensor.reshape</text>
<text text-anchor="middle" x="579" y="-2052.9408" font-family="Times,serif" font-size="14.00" fill="#000000">tensor&lt;128x768xf32&gt;</text>
</g>
<!-- v7&#45;&gt;v8 -->
<g id="edge5" class="edge">
<title>v7-&gt;v8</title>
<path fill="none" stroke="#000000" d="M626.8803,-2328.1536C617.2897,-2322.245 609.7475,-2316.2193 605,-2310.1564 558.717,-2251.0499 563.7355,-2157.782 571.4252,-2105.1338"/>
<polygon fill="#000000" stroke="#000000" points="574.8965,-2105.5888 572.9843,-2095.168 567.9806,-2104.5068 574.8965,-2105.5888"/>
</g>
<!-- v13 -->
<g id="node12" class="node">
<title>v13</title>
<polygon fill="none" stroke="#000000" points="809.5304,-1871.6939 344.4696,-1871.6939 344.4696,-1695.6939 809.5304,-1695.6939 809.5304,-1871.6939"/>
<text text-anchor="middle" x="577" y="-1855.0939" font-family="Times,serif" font-size="14.00" fill="#000000">%9 = flow.dispatch[]</text>
<text text-anchor="middle" x="577" y="-1838.2939" font-family="Times,serif" font-size="14.00" fill="#000000">@forward_dispatch_5::@forward_dispatch_5_generic_768x128_f32(%4, %cst)</text>
<text text-anchor="start" x="352.2349" y="-1821.4939" font-family="Times,serif" font-size="14.00" fill="#000000">%0 = flow.dispatch.tensor.load %arg0 -&gt; tensor&lt;128x768xf32&gt;</text>
<text text-anchor="start" x="352.2349" y="-1804.6939" font-family="Times,serif" font-size="14.00" fill="#000000">%1 = flow.dispatch.tensor.load %arg1 -&gt; tensor&lt;768xf32&gt;</text>
<text text-anchor="start" x="352.2349" y="-1787.8939" font-family="Times,serif" font-size="14.00" fill="#000000">%2 = tensor.empty() : tensor&lt;768x128xf32&gt;</text>
<text text-anchor="start" x="352.2349" y="-1771.0939" font-family="Times,serif" font-size="14.00" fill="#000000">%3 = linalg.generic[parallel, parallel] (%0, %1) -&gt; (%2)</text>
<text text-anchor="start" x="352.2349" y="-1754.2939" font-family="Times,serif" font-size="14.00" fill="#000000">        %4 = arith.addf %in, %in_0 : f32</text>
<text text-anchor="start" x="352.2349" y="-1737.4939" font-family="Times,serif" font-size="14.00" fill="#000000">        linalg.yield %4 : f32</text>
<text text-anchor="start" x="352.2349" y="-1720.6939" font-family="Times,serif" font-size="14.00" fill="#000000">flow.dispatch.tensor.store %3, %arg2</text>
<text text-anchor="middle" x="577" y="-1703.8939" font-family="Times,serif" font-size="14.00" fill="#000000">tensor&lt;768x128xf32&gt;</text>
</g>
<!-- v8&#45;&gt;v13 -->
<g id="edge10" class="edge">
<title>v8-&gt;v13</title>
<path fill="none" stroke="#000000" d="M578.7897,-2035.9109C578.5315,-1999.521 578.0804,-1935.9478 577.6957,-1881.7338"/>
<polygon fill="#000000" stroke="#000000" points="581.1957,-1881.7033 577.6247,-1871.7285 574.1958,-1881.7531 581.1957,-1881.7033"/>
<text text-anchor="middle" x="581.5" y="-1928.6939" font-family="Times,serif" font-size="14.00" fill="#000000">0</text>
</g>
<!-- v10 -->
<g id="node9" class="node">
<title>v10</title>
<ellipse fill="none" stroke="#000000" cx="894" cy="-1988.7095" rx="112.6038" ry="29.3315"/>
<text text-anchor="middle" x="894" y="-1992.9095" font-family="Times,serif" font-size="14.00" fill="#000000">%6 = flow.tensor.reshape</text>
<text text-anchor="middle" x="894" y="-1976.1095" font-family="Times,serif" font-size="14.00" fill="#000000">tensor&lt;128x12x64xf32&gt;</text>
</g>
<!-- v9&#45;&gt;v10 -->
<g id="edge7" class="edge">
<title>v9-&gt;v10</title>
<path fill="none" stroke="#000000" d="M894,-2150.6964C894,-2109.7266 894,-2061.6206 894,-2028.5369"/>
<polygon fill="#000000" stroke="#000000" points="897.5001,-2028.3514 894,-2018.3514 890.5001,-2028.3515 897.5001,-2028.3514"/>
</g>
<!-- v11 -->
<g id="node10" class="node">
<title>v11</title>
<polygon fill="none" stroke="#000000" points="1140.5304,-1483.6939 647.4696,-1483.6939 647.4696,-1307.6939 1140.5304,-1307.6939 1140.5304,-1483.6939"/>
<text text-anchor="middle" x="894" y="-1467.0939" font-family="Times,serif" font-size="14.00" fill="#000000">%7 = flow.dispatch[]</text>
<text text-anchor="middle" x="894" y="-1450.2939" font-family="Times,serif" font-size="14.00" fill="#000000">@forward_dispatch_3::@forward_dispatch_3_generic_128x12x64_f32(%6, %cst_3)</text>
<text text-anchor="start" x="655.2349" y="-1433.4939" font-family="Times,serif" font-size="14.00" fill="#000000">%0 = flow.dispatch.tensor.load %arg0 -&gt; tensor&lt;128x12x64xf32&gt;</text>
<text text-anchor="start" x="655.2349" y="-1416.6939" font-family="Times,serif" font-size="14.00" fill="#000000">%1 = flow.dispatch.tensor.load %arg1 -&gt; tensor&lt;12x64xf32&gt;</text>
<text text-anchor="start" x="655.2349" y="-1399.8939" font-family="Times,serif" font-size="14.00" fill="#000000">%2 = tensor.empty() : tensor&lt;12x128x64xf32&gt;</text>
<text text-anchor="start" x="655.2349" y="-1383.0939" font-family="Times,serif" font-size="14.00" fill="#000000">%3 = linalg.generic[parallel, parallel, parallel] (%0, %1) -&gt; (%2)</text>
<text text-anchor="start" x="655.2349" y="-1366.2939" font-family="Times,serif" font-size="14.00" fill="#000000">        %4 = arith.addf %in, %in_0 : f32</text>
<text text-anchor="start" x="655.2349" y="-1349.4939" font-family="Times,serif" font-size="14.00" fill="#000000">        linalg.yield %4 : f32</text>
<text text-anchor="start" x="655.2349" y="-1332.6939" font-family="Times,serif" font-size="14.00" fill="#000000">flow.dispatch.tensor.store %3, %arg2</text>
<text text-anchor="middle" x="894" y="-1315.8939" font-family="Times,serif" font-size="14.00" fill="#000000">tensor&lt;12x128x64xf32&gt;</text>
</g>
<!-- v10&#45;&gt;v11 -->
<g id="edge8" class="edge">
<title>v10-&gt;v11</title>
<path fill="none" stroke="#000000" d="M894,-1958.8954C894,-1874.5733 894,-1631.5873 894,-1493.9083"/>
<polygon fill="#000000" stroke="#000000" points="897.5001,-1493.774 894,-1483.774 890.5001,-1493.774 897.5001,-1493.774"/>
<text text-anchor="middle" x="897.5" y="-1893.8939" font-family="Times,serif" font-size="14.00" fill="#000000">0</text>
</g>
<!-- v17 -->
<g id="node16" class="node">
<title>v17</title>
<polygon fill="none" stroke="#000000" points="1058.7752,-604.0629 509.2248,-604.0629 509.2248,-394.8622 1058.7752,-394.8622 1058.7752,-604.0629"/>
<text text-anchor="middle" x="784" y="-587.6626" font-family="Times,serif" font-size="14.00" fill="#000000">%13 = flow.dispatch[]</text>
<text text-anchor="middle" x="784" y="-570.8626" font-family="Times,serif" font-size="14.00" fill="#000000">@forward_dispatch_8::@forward_dispatch_8_batch_matmul_12x128x64x128_f32(%12, %7)</text>
<text text-anchor="start" x="517.1124" y="-554.0626" font-family="Times,serif" font-size="14.00" fill="#000000">%0 = flow.dispatch.tensor.load %arg0 -&gt; tensor&lt;12x128x128xf32&gt;</text>
<text text-anchor="start" x="517.1124" y="-537.2626" font-family="Times,serif" font-size="14.00" fill="#000000">%1 = flow.dispatch.tensor.load %arg1 -&gt; tensor&lt;12x128x64xf32&gt;</text>
<text text-anchor="start" x="517.1124" y="-520.4626" font-family="Times,serif" font-size="14.00" fill="#000000">%2 = tensor.empty() : tensor&lt;128x12x64xf32&gt;</text>
<text text-anchor="start" x="517.1124" y="-503.6626" font-family="Times,serif" font-size="14.00" fill="#000000">%3 = tensor.empty() : tensor&lt;12x128x64xf32&gt;</text>
<text text-anchor="start" x="517.1124" y="-486.8626" font-family="Times,serif" font-size="14.00" fill="#000000">%4 = linalg.fill ins(%cst : f32) outs(%3 : tensor&lt;12x128x64xf32&gt;) -&gt; tensor&lt;12x128x64xf32&gt;</text>
<text text-anchor="start" x="517.1124" y="-470.0626" font-family="Times,serif" font-size="14.00" fill="#000000">%5 = linalg.batch_matmul[parallel, parallel, parallel, reduction] (%0, %1) -&gt; (%4)</text>
<text text-anchor="start" x="517.1124" y="-453.2626" font-family="Times,serif" font-size="14.00" fill="#000000">%6 = linalg.generic[parallel, parallel, parallel] (%5) -&gt; (%2)</text>
<text text-anchor="start" x="517.1124" y="-436.4626" font-family="Times,serif" font-size="14.00" fill="#000000">        linalg.yield %in : f32</text>
<text text-anchor="start" x="517.1124" y="-419.6626" font-family="Times,serif" font-size="14.00" fill="#000000">flow.dispatch.tensor.store %6, %arg2</text>
<text text-anchor="middle" x="784" y="-402.8626" font-family="Times,serif" font-size="14.00" fill="#000000">tensor&lt;128x12x64xf32&gt;</text>
</g>
<!-- v11&#45;&gt;v17 -->
<g id="edge16" class="edge">
<title>v11-&gt;v17</title>
<path fill="none" stroke="#000000" d="M894,-1307.503C894,-1285.847 894,-1262.7248 894,-1241.2782 894,-1241.2782 894,-1241.2782 894,-649.6626 894,-637.2895 891.5403,-625.2582 887.3565,-613.7432"/>
<polygon fill="#000000" stroke="#000000" points="890.4771,-612.1273 883.4527,-604.1958 883.9978,-614.7767 890.4771,-612.1273"/>
<text text-anchor="middle" x="897.5" y="-880.8626" font-family="Times,serif" font-size="14.00" fill="#000000">1</text>
</g>
<!-- v15 -->
<g id="node14" class="node">
<title>v15</title>
<polygon fill="none" stroke="#000000" points="735.7752,-1120.8629 172.2248,-1120.8629 172.2248,-911.6622 735.7752,-911.6622 735.7752,-1120.8629"/>
<text text-anchor="middle" x="454" y="-1104.4626" font-family="Times,serif" font-size="14.00" fill="#000000">%11 = flow.dispatch[]</text>
<text text-anchor="middle" x="454" y="-1087.6626" font-family="Times,serif" font-size="14.00" fill="#000000">@forward_dispatch_6::@forward_dispatch_6_batch_matmul_12x128x128x64_f32(%8, %10)</text>
<text text-anchor="start" x="180.1124" y="-1070.8626" font-family="Times,serif" font-size="14.00" fill="#000000">%0 = flow.dispatch.tensor.load %arg0 -&gt; tensor&lt;12x128x64xf32&gt;</text>
<text text-anchor="start" x="180.1124" y="-1054.0626" font-family="Times,serif" font-size="14.00" fill="#000000">%1 = flow.dispatch.tensor.load %arg1 -&gt; tensor&lt;12x64x128xf32&gt;</text>
<text text-anchor="start" x="180.1124" y="-1037.2626" font-family="Times,serif" font-size="14.00" fill="#000000">%2 = tensor.empty() : tensor&lt;12x128x128xf32&gt;</text>
<text text-anchor="start" x="180.1124" y="-1020.4626" font-family="Times,serif" font-size="14.00" fill="#000000">%3 = linalg.fill ins(%cst : f32) outs(%2 : tensor&lt;12x128x128xf32&gt;) -&gt; tensor&lt;12x128x128xf32&gt;</text>
<text text-anchor="start" x="180.1124" y="-1003.6626" font-family="Times,serif" font-size="14.00" fill="#000000">%4 = linalg.batch_matmul[parallel, parallel, parallel, reduction] (%0, %1) -&gt; (%3)</text>
<text text-anchor="start" x="180.1124" y="-986.8626" font-family="Times,serif" font-size="14.00" fill="#000000">%5 = linalg.generic[parallel, parallel, parallel] (%4) -&gt; (%2)</text>
<text text-anchor="start" x="180.1124" y="-970.0626" font-family="Times,serif" font-size="14.00" fill="#000000">        %6 = arith.divf %in, %cst_0 : f32</text>
<text text-anchor="start" x="180.1124" y="-953.2626" font-family="Times,serif" font-size="14.00" fill="#000000">        linalg.yield %6 : f32</text>
<text text-anchor="start" x="180.1124" y="-936.4626" font-family="Times,serif" font-size="14.00" fill="#000000">flow.dispatch.tensor.store %5, %arg2</text>
<text text-anchor="middle" x="454" y="-919.6626" font-family="Times,serif" font-size="14.00" fill="#000000">tensor&lt;12x128x128xf32&gt;</text>
</g>
<!-- v12&#45;&gt;v15 -->
<g id="edge12" class="edge">
<title>v12-&gt;v15</title>
<path fill="none" stroke="#000000" d="M335.3615,-1501.4136C346.7749,-1441.7882 359,-1361.1315 359,-1289.1939 359,-1289.1939 359,-1289.1939 359,-1166.4626 359,-1154.2895 361.2564,-1142.3011 365.0736,-1130.7296"/>
<polygon fill="#000000" stroke="#000000" points="368.4442,-1131.7058 368.6319,-1121.1127 361.8792,-1129.2767 368.4442,-1131.7058"/>
<text text-anchor="middle" x="362.5" y="-1237.0782" font-family="Times,serif" font-size="14.00" fill="#000000">0</text>
</g>
<!-- v14 -->
<g id="node13" class="node">
<title>v14</title>
<ellipse fill="none" stroke="#000000" cx="545" cy="-1241.2782" rx="117.5033" ry="29.3315"/>
<text text-anchor="middle" x="545" y="-1245.4782" font-family="Times,serif" font-size="14.00" fill="#000000">%10 = flow.tensor.reshape</text>
<text text-anchor="middle" x="545" y="-1228.6782" font-family="Times,serif" font-size="14.00" fill="#000000">tensor&lt;12x64x128xf32&gt;</text>
</g>
<!-- v13&#45;&gt;v14 -->
<g id="edge11" class="edge">
<title>v13-&gt;v14</title>
<path fill="none" stroke="#000000" d="M576.8952,-1695.6602C576.3913,-1640.0038 574.9235,-1566.5822 571,-1501.6939 566.2537,-1423.1986 556.041,-1331.8099 549.9228,-1280.8405"/>
<polygon fill="#000000" stroke="#000000" points="553.3959,-1280.4061 548.7197,-1270.899 546.4466,-1281.2471 553.3959,-1280.4061"/>
</g>
<!-- v14&#45;&gt;v15 -->
<g id="edge13" class="edge">
<title>v14-&gt;v15</title>
<path fill="none" stroke="#000000" d="M533.1033,-1211.8613C524.5241,-1190.6474 512.3435,-1160.5285 500.1046,-1130.2653"/>
<polygon fill="#000000" stroke="#000000" points="503.3023,-1128.8367 496.3083,-1120.8783 496.8129,-1131.4611 503.3023,-1128.8367"/>
<text text-anchor="middle" x="520.5" y="-1162.2626" font-family="Times,serif" font-size="14.00" fill="#000000">1</text>
</g>
<!-- v16 -->
<g id="node15" class="node">
<title>v16</title>
<polygon fill="none" stroke="#000000" points="874.7314,-820.4632 33.2686,-820.4632 33.2686,-695.2619 874.7314,-695.2619 874.7314,-820.4632"/>
<text text-anchor="middle" x="454" y="-804.0626" font-family="Times,serif" font-size="14.00" fill="#000000">%12 = flow.dispatch[]</text>
<text text-anchor="middle" x="454" y="-787.2626" font-family="Times,serif" font-size="14.00" fill="#000000">@forward_dispatch_7::@forward_dispatch_7_softmax_12x128x128xf32(%11)</text>
<text text-anchor="start" x="41.3843" y="-770.4626" font-family="Times,serif" font-size="14.00" fill="#000000">%0 = flow.dispatch.tensor.load %arg0 -&gt; tensor&lt;12x128x128xf32&gt;</text>
<text text-anchor="start" x="41.3843" y="-753.6626" font-family="Times,serif" font-size="14.00" fill="#000000">%1 = tensor.empty() : tensor&lt;12x128x128xf32&gt;</text>
<text text-anchor="start" x="41.3843" y="-736.8626" font-family="Times,serif" font-size="14.00" fill="#000000">%2 = iree_linalg_ext.softmax dimension(2) ins(%0 : tensor&lt;12x128x128xf32&gt;) outs(%1 : tensor&lt;12x128x128xf32&gt;) -&gt; tensor&lt;12x128x128xf32&gt;</text>
<text text-anchor="start" x="41.3843" y="-720.0626" font-family="Times,serif" font-size="14.00" fill="#000000">flow.dispatch.tensor.store %2, %arg1</text>
<text text-anchor="middle" x="454" y="-703.2626" font-family="Times,serif" font-size="14.00" fill="#000000">tensor&lt;12x128x128xf32&gt;</text>
</g>
<!-- v15&#45;&gt;v16 -->
<g id="edge14" class="edge">
<title>v15-&gt;v16</title>
<path fill="none" stroke="#000000" d="M454,-911.5339C454,-884.4833 454,-855.9472 454,-830.9056"/>
<polygon fill="#000000" stroke="#000000" points="457.5001,-830.7671 454,-820.7671 450.5001,-830.7671 457.5001,-830.7671"/>
</g>
<!-- v16&#45;&gt;v17 -->
<g id="edge15" class="edge">
<title>v16-&gt;v17</title>
<path fill="none" stroke="#000000" d="M534.3051,-694.9812C566.6749,-669.6347 605.0112,-639.6162 641.805,-610.8056"/>
<polygon fill="#000000" stroke="#000000" points="644.4078,-613.2129 650.1234,-604.292 640.0922,-607.7014 644.4078,-613.2129"/>
<text text-anchor="middle" x="605.5" y="-645.4626" font-family="Times,serif" font-size="14.00" fill="#000000">0</text>
</g>
<!-- v18 -->
<g id="node17" class="node">
<title>v18</title>
<ellipse fill="none" stroke="#000000" cx="784" cy="-290.2469" rx="117.5033" ry="29.3315"/>
<text text-anchor="middle" x="784" y="-294.4469" font-family="Times,serif" font-size="14.00" fill="#000000">%14 = flow.tensor.reshape</text>
<text text-anchor="middle" x="784" y="-277.6469" font-family="Times,serif" font-size="14.00" fill="#000000">tensor&lt;1x128x768xf32&gt;</text>
</g>
<!-- v17&#45;&gt;v18 -->
<g id="edge17" class="edge">
<title>v17-&gt;v18</title>
<path fill="none" stroke="#000000" d="M784,-394.8547C784,-371.6901 784,-348.5254 784,-329.9044"/>
<polygon fill="#000000" stroke="#000000" points="787.5001,-329.7786 784,-319.7787 780.5001,-329.7787 787.5001,-329.7786"/>
</g>
<!-- v19 -->
<g id="node18" class="node">
<title>v19</title>
<ellipse fill="none" stroke="#000000" cx="784" cy="-156.4156" rx="106.5323" ry="29.3315"/>
<text text-anchor="middle" x="784" y="-160.6156" font-family="Times,serif" font-size="14.00" fill="#000000">%15 = hal.tensor.export</text>
<text text-anchor="middle" x="784" y="-143.8156" font-family="Times,serif" font-size="14.00" fill="#000000">!hal.buffer_view</text>
</g>
<!-- v18&#45;&gt;v19 -->
<g id="edge18" class="edge">
<title>v18-&gt;v19</title>
<path fill="none" stroke="#000000" d="M784,-260.5454C784,-241.5727 784,-216.7477 784,-196.0958"/>
<polygon fill="#000000" stroke="#000000" points="787.5001,-196.0341 784,-186.0341 780.5001,-196.0341 787.5001,-196.0341"/>
</g>
<!-- v20 -->
<g id="node19" class="node">
<title>v20</title>
<ellipse fill="none" stroke="#000000" cx="784" cy="-34" rx="63.8804" ry="18"/>
<text text-anchor="middle" x="784" y="-29.8" font-family="Times,serif" font-size="14.00" fill="#000000"> = func.return</text>
</g>
<!-- v19&#45;&gt;v20 -->
<g id="edge19" class="edge">
<title>v19-&gt;v20</title>
<path fill="none" stroke="#000000" d="M784,-126.7822C784,-107.1993 784,-81.6784 784,-62.3604"/>
<polygon fill="#000000" stroke="#000000" points="787.5001,-62.3434 784,-52.3434 780.5001,-62.3434 787.5001,-62.3434"/>
</g>
</g>
</svg>